<?xml version="1.0" encoding="utf-8"?>
<!-- Generator: Adobe Illustrator 23.0.1, SVG Export Plug-In . SVG Version: 6.00 Build 0)  -->
<svg version="1.1" id="Layer_1" xmlns="http://www.w3.org/2000/svg" xmlns:xlink="http://www.w3.org/1999/xlink" x="0px" y="0px"
	 viewBox="0 0 28 28" style="enable-background:new 0 0 28 28;" xml:space="preserve">
<g>
	<path d="M14-0.3C6.1-0.3-0.3,6.1-0.3,14c0,7.9,6.4,14.3,14.3,14.3c7.9,0,14.3-6.4,14.3-14.3C28.3,6.1,21.9-0.3,14-0.3z M14,26.8
		C7,26.8,1.2,21,1.2,14C1.2,7,7,1.2,14,1.2C21,1.2,26.8,7,26.8,14C26.8,21,21,26.8,14,26.8z"/>
	<path d="M19.7,8.3c-0.1-0.1-0.3-0.2-0.5-0.2c-0.2,0-0.4,0.1-0.5,0.2L14,12.9L9.4,8.3C9.3,8.2,9.1,8.1,8.9,8.1
		c-0.2,0-0.4,0.1-0.5,0.2C8,8.6,8,9.1,8.3,9.4l4.6,4.6l-4.6,4.6c-0.2,0.2-0.3,0.5-0.2,0.7c0.1,0.3,0.3,0.5,0.5,0.5
		c0.1,0,0.1,0,0.2,0c0.2,0,0.4-0.1,0.5-0.2l4.6-4.6l4.6,4.6c0.1,0.1,0.3,0.2,0.5,0.2c0.2,0,0.4-0.1,0.5-0.2c0.3-0.3,0.3-0.8,0-1.1
		L15.1,14l4.6-4.6C20,9.1,20,8.6,19.7,8.3z"/>
</g>
</svg>
