<?xml version="1.0" encoding="utf-8"?>
<!-- Generator: Adobe Illustrator 23.0.1, SVG Export Plug-In . SVG Version: 6.00 Build 0)  -->
<svg version="1.1" id="Layer_1" xmlns="http://www.w3.org/2000/svg" xmlns:xlink="http://www.w3.org/1999/xlink" x="0px" y="0px"
	 viewBox="0 0 28 28" style="enable-background:new 0 0 28 28;" xml:space="preserve">
<g>
	<path d="M14-0.3C6.1-0.3-0.3,6.1-0.3,14c0,7.9,6.4,14.3,14.3,14.3c7.9,0,14.3-6.4,14.3-14.3C28.3,6.1,21.9-0.3,14-0.3z M14,26.8
		C7,26.8,1.2,21,1.2,14C1.2,7,7,1.2,14,1.2C21,1.2,26.8,7,26.8,14C26.8,21,21,26.8,14,26.8z"/>
	<path d="M19.6,18.8h-6.7l6.7-6.7c1-1,1-2.7,0-3.7C19,8,18.4,7.7,17.7,7.7c-0.7,0-1.4,0.3-1.9,0.8l-7.3,7.3
		c-0.1,0.1-0.1,0.1-0.2,0.3l0,0.1l-0.7,3.4c0,0,0,0.1,0,0.1c0,0,0,0,0,0l0,0.1l0,0.1c0,0.1,0,0.2,0.1,0.3c0,0.1,0.1,0.2,0.1,0.2
		c0.1,0.1,0.3,0.2,0.5,0.2h11.2c0.4,0,0.8-0.3,0.8-0.8C20.4,19.2,20,18.8,19.6,18.8z M10.2,18.4l-0.8,0.2l0.2-0.8L10.2,18.4z
		 M10.2,16.3l5.5-5.5l1.6,1.6l-5.5,5.5L10.2,16.3z M18.5,9.5c0.2,0.2,0.3,0.5,0.3,0.8s-0.1,0.6-0.3,0.8l-0.1,0.1l-1.6-1.6l0.1-0.1
		c0.2-0.2,0.5-0.3,0.8-0.3S18.3,9.3,18.5,9.5z"/>
</g>
</svg>
