<?xml version="1.0" encoding="utf-8"?>
<!-- Generator: Adobe Illustrator 23.0.1, SVG Export Plug-In . SVG Version: 6.00 Build 0)  -->
<svg version="1.1" id="Layer_1" xmlns="http://www.w3.org/2000/svg" xmlns:xlink="http://www.w3.org/1999/xlink" x="0px" y="0px"
	 viewBox="0 0 28 28" style="enable-background:new 0 0 28 28;" xml:space="preserve">
<g>
	<path d="M14,28C6.3,28,0,21.7,0,14C0,6.3,6.3,0,14,0c7.7,0,14,6.3,14,14C28,21.7,21.7,28,14,28z M14,1.5C7.1,1.5,1.5,7.1,1.5,14
		c0,6.9,5.6,12.5,12.5,12.5c6.9,0,12.5-5.6,12.5-12.5C26.5,7.1,20.9,1.5,14,1.5z"/>
	<path d="M14,0C6.3,0,0,6.3,0,14s6.3,14,14,14s14-6.3,14-14C28,6.3,21.7,0,14,0z M14,27.1C6.8,27.1,0.9,21.2,0.9,14S6.8,0.9,14,0.9
		S27.1,6.8,27.1,14C27.1,21.2,21.2,27.1,14,27.1z"/>
	<path d="M17.7,21.2c-0.4,0-0.8-0.1-1.1-0.2c-1.4-0.6-2.2-2.1-1.8-3.5l-3-1.5c-0.6,0.7-1.4,1.1-2.3,1.1c-0.3,0-0.6-0.1-0.9-0.2
		c-1.3-0.4-2.1-1.6-2.1-2.9c0-1.3,0.8-2.5,2.1-2.9C8.8,11,9.1,11,9.4,11c0.9,0,1.7,0.4,2.3,1.1l3-1.5c-0.3-1.2,0.2-2.4,1.2-3.1
		C16.4,7,17,6.9,17.7,6.9c0.7,0,1.3,0.2,1.8,0.6c1.1,0.8,1.5,2.1,1.1,3.4c-0.4,1.2-1.6,2.1-2.9,2.1c-0.9,0-1.7-0.4-2.3-1l-3,1.5
		c0.1,0.4,0.1,0.9,0,1.3l3,1.5c0.6-0.7,1.4-1.1,2.3-1.1c0.6,0,1.1,0.2,1.6,0.5c1.3,0.8,1.8,2.6,1.1,4C19.9,20.5,18.8,21.2,17.7,21.2
		z M17.7,16.6c-0.8,0-1.5,0.7-1.5,1.5c0,0.8,0.7,1.5,1.5,1.5c0.8,0,1.5-0.7,1.5-1.5C19.2,17.3,18.5,16.6,17.7,16.6z M9.4,12.5
		c-0.8,0-1.5,0.7-1.5,1.5s0.7,1.5,1.5,1.5S11,14.8,11,14S10.3,12.5,9.4,12.5z M17.7,8.4c-0.8,0-1.5,0.7-1.5,1.5
		c0,0.8,0.7,1.5,1.5,1.5c0.8,0,1.5-0.7,1.5-1.5C19.2,9,18.5,8.4,17.7,8.4z"/>
	<path d="M17.7,12.6c1.2,0,2.3-0.8,2.7-1.9c0.4-1.1,0-2.4-1-3.1s-2.3-0.7-3.3,0c-1,0.7-1.4,1.9-1.1,3.1l-3.5,1.7c-0.7-1-2-1.4-3.1-1
		c-1.2,0.4-1.9,1.5-1.9,2.7s0.8,2.3,1.9,2.7c1.2,0.4,2.4,0,3.1-1l3.5,1.7c-0.4,1.4,0.3,2.9,1.6,3.5c1.4,0.5,2.9,0,3.6-1.3
		c0.7-1.3,0.2-2.9-1-3.7c-1.3-0.8-2.9-0.4-3.7,0.7L12,14.8c0.2-0.5,0.2-1.1,0-1.6l3.5-1.7C16,12.2,16.8,12.6,17.7,12.6z M17.7,16.3
		c1,0,1.9,0.8,1.9,1.9c0,1-0.8,1.9-1.9,1.9s-1.9-0.8-1.9-1.9C15.9,17.2,16.7,16.3,17.7,16.3z M9.3,15.9c-1,0-1.9-0.8-1.9-1.9
		s0.8-1.9,1.9-1.9s1.9,0.8,1.9,1.9S10.4,15.9,9.3,15.9z M17.7,7.9c1,0,1.9,0.8,1.9,1.9s-0.8,1.9-1.9,1.9s-1.9-0.8-1.9-1.9
		S16.7,7.9,17.7,7.9z"/>
</g>
</svg>
