<?xml version="1.0" encoding="utf-8"?>
<!-- Generator: Adobe Illustrator 23.0.1, SVG Export Plug-In . SVG Version: 6.00 Build 0)  -->
<svg version="1.1" id="Layer_1" xmlns="http://www.w3.org/2000/svg" xmlns:xlink="http://www.w3.org/1999/xlink" x="0px" y="0px"
	 viewBox="0 0 28 28" style="enable-background:new 0 0 28 28;" xml:space="preserve">
<g>
	<path d="M14-0.3C6.1-0.3-0.3,6.1-0.3,14c0,7.9,6.4,14.3,14.3,14.3c7.9,0,14.3-6.4,14.3-14.3C28.3,6.1,21.9-0.3,14-0.3z M14,26.8
		C7,26.8,1.2,21,1.2,14C1.2,7,7,1.2,14,1.2C21,1.2,26.8,7,26.8,14C26.8,21,21,26.8,14,26.8z"/>
	<path d="M14,10c-0.4,0-0.8,0.3-0.8,0.8v8.4c0,0.4,0.3,0.8,0.8,0.8s0.8-0.3,0.8-0.8v-8.4C14.8,10.3,14.4,10,14,10z"/>
	<path d="M18.7,7.2c-0.4,0-0.8,0.3-0.8,0.8v11.2c0,0.4,0.3,0.8,0.8,0.8s0.8-0.3,0.8-0.8V7.9C19.4,7.5,19.1,7.2,18.7,7.2z"/>
	<path d="M9.3,13.7c-0.4,0-0.8,0.3-0.8,0.8v4.7c0,0.4,0.3,0.8,0.8,0.8c0.4,0,0.8-0.3,0.8-0.8v-4.7C10.1,14,9.8,13.7,9.3,13.7z"/>
</g>
</svg>
