<?xml version="1.0" encoding="utf-8"?>
<!-- Generator: Adobe Illustrator 23.0.1, SVG Export Plug-In . SVG Version: 6.00 Build 0)  -->
<svg version="1.1" id="Layer_1" xmlns="http://www.w3.org/2000/svg" xmlns:xlink="http://www.w3.org/1999/xlink" x="0px" y="0px"
	 viewBox="0 0 16 16" style="enable-background:new 0 0 16 16;" xml:space="preserve">
<title>cross</title>
<path d="M9.2,8l4.6-4.6c0.3-0.3,0.3-0.9,0-1.2s-0.9-0.3-1.2,0L8,6.8L3.4,2.2c-0.3-0.3-0.9-0.3-1.2,0s-0.3,0.9,0,1.2L6.8,8l-4.6,4.6
	c-0.3,0.3-0.3,0.9,0,1.2C2.4,13.9,2.6,14,2.8,14s0.4-0.1,0.6-0.2L8,9.2l4.6,4.6c0.2,0.2,0.4,0.2,0.6,0.2s0.4-0.1,0.6-0.2
	c0.3-0.3,0.3-0.9,0-1.2L9.2,8z"/>
</svg>
